<?xml version="1.0" encoding="utf-8"?>
<!-- Generator: Adobe Illustrator 21.0.0, SVG Export Plug-In . SVG Version: 6.00 Build 0)  -->
<svg version="1.1" id="Layer_1" xmlns="http://www.w3.org/2000/svg" xmlns:xlink="http://www.w3.org/1999/xlink" x="0px" y="0px"
	 viewBox="0 0 432 432" style="enable-background:new 0 0 432 432;" xml:space="preserve">
<style type="text/css">
	.st0{fill:none;}
</style>
<g>
	<path class="st0" d="M298.7,100.6h-18.2c-0.8,0-1.5,0.2-2.1,0.6v2.5h24.1C302.2,102,300.6,100.6,298.7,100.6z"/>
	<path class="st0" d="M205.5,133.8c0.5-0.6,1.4-0.6,2,0c0.6,0.5,0.6,1.4,0,2l-2.7,2.7c1.1,0.7,2.5,1.1,3.8,1.1c1.9,0,3.6-0.7,4.9-2
		c2.7-2.8,2.7-7.2,0-9.9c-1.3-1.3-3.1-2-4.9-2c-1.9,0-3.6,0.7-4.9,2c-1.3,1.3-2,3.1-2,5c0,1.4,0.4,2.7,1.1,3.8L205.5,133.8z"/>
	<path class="st0" d="M179.8,139.5v-3.8c0-0.8,0.7-1.4,1.4-1.4c0.8,0,1.4,0.7,1.4,1.4v3.8c3.2-0.6,5.6-3.5,5.6-6.8c0-3.9-3.2-7-7-7
		c-3.9,0-7,3.1-7,7C174.3,136,176.7,138.8,179.8,139.5z"/>
	<rect x="329" y="136.6" class="st0" width="17.8" height="8.9"/>
	<path class="st0" d="M312.6,147.1l2.4-2.4v-3.4l-2.4-2.4h-3.4l-2.4,2.4v3.4l2.4,2.4H312.6z M307.8,143c0-1.7,1.4-3,3-3
		c1.7,0,3,1.4,3,3c0,1.7-1.4,3-3,3C309.2,146,307.8,144.7,307.8,143z"/>
	<path class="st0" d="M259.9,101.5c-7.5-2.4-16-5.2-28.3-5.2c-13.6,0-22.2,2.9-29.2,5.3c-2.4,0.8-4.7,1.6-7,2.2h72.2
		C265.1,103.2,262.6,102.4,259.9,101.5z"/>
	<path class="st0" d="M312.6,130.2l2.4-2.4v-3.4l-2.4-2.4h-3.4l-2.4,2.4v3.4l2.4,2.4H312.6z M307.8,126.1c0-1.7,1.4-3,3-3
		c1.7,0,3,1.4,3,3s-1.4,3-3,3C309.2,129.1,307.8,127.8,307.8,126.1z"/>
	<rect x="329" y="146.5" class="st0" width="17.8" height="1.1"/>
	<rect x="329" y="122.8" class="st0" width="17.8" height="11"/>
	<path class="st0" d="M125.3,139.6c1.9,0,3.6-0.7,4.9-2c2.7-2.8,2.7-7.2,0-9.9c-1.3-1.3-3.1-2-4.9-2s-3.6,0.7-4.9,2
		c-1.3,1.3-2,3.1-2,5c0,1.9,0.7,3.6,2,4.9C121.7,138.9,123.4,139.6,125.3,139.6z M125.3,127.4c2.9,0,5.2,2.3,5.2,5.2
		c0,2.9-2.3,5.2-5.2,5.2c-2.9,0-5.2-2.4-5.2-5.2C120.1,129.7,122.4,127.4,125.3,127.4z"/>
	<path class="st0" d="M108.1,157.9h246.9v-44.6H108.1V157.9z M122.9,152.4h-3.8c-1.3,0-2.4-1.1-2.4-2.4c0-1.3,1.1-2.4,2.4-2.4h3.8
		c1.3,0,2.4,1.1,2.4,2.4C125.3,151.4,124.2,152.4,122.9,152.4z M132.4,152.4h-3.8c-1.3,0-2.4-1.1-2.4-2.4c0-1.3,1.1-2.4,2.4-2.4h3.8
		c1.3,0,2.4,1.1,2.4,2.4C134.8,151.4,133.7,152.4,132.4,152.4z M157.5,152.4h-6.7c-1.3,0-2.4-1.1-2.4-2.4c0-1.3,1.1-2.4,2.4-2.4h6.7
		c1.3,0,2.4,1.1,2.4,2.4C159.9,151.4,158.9,152.4,157.5,152.4z M184.6,152.4h-6.7c-1.3,0-2.4-1.1-2.4-2.4c0-1.3,1.1-2.4,2.4-2.4h6.7
		c1.3,0,2.4,1.1,2.4,2.4C187,151.4,186,152.4,184.6,152.4z M212.5,152.4h-6.7c-1.3,0-2.4-1.1-2.4-2.4c0-1.3,1.1-2.4,2.4-2.4h6.7
		c1.3,0,2.4,1.1,2.4,2.4C214.9,151.4,213.8,152.4,212.5,152.4z M256.2,135H242c-1.3,0-2.4-1.1-2.4-2.4c0-1.3,1.1-2.4,2.4-2.4h14.2
		c1.3,0,2.4,1.1,2.4,2.4C258.6,134,257.5,135,256.2,135z M291.7,135h-23.9c-1.3,0-2.4-1.1-2.4-2.4c0-1.3,1.1-2.4,2.4-2.4h23.9
		c1.3,0,2.4,1.1,2.4,2.4C294.1,134,293.1,135,291.7,135z M324.2,120.4c0-1.3,1.1-2.4,2.4-2.4h22.6c1.3,0,2.4,1.1,2.4,2.4V150
		c0,1.3-1.1,2.4-2.4,2.4h-22.6c-1.3,0-2.4-1.1-2.4-2.4V120.4z M304.1,123.8c0-0.4,0.1-0.7,0.4-1l3.2-3.2c0.2-0.2,0.6-0.4,1-0.4h4.5
		c0.4,0,0.7,0.1,1,0.4l3.2,3.2c0.2,0.2,0.4,0.6,0.4,1v4.5c0,0.4-0.1,0.7-0.4,1l-3.2,3.2c-0.2,0.2-0.6,0.4-1,0.4h-4.5
		c-0.4,0-0.7-0.1-1-0.4l-3.2-3.2c-0.2-0.2-0.4-0.6-0.4-1V123.8z M304.1,140.7c0-0.4,0.1-0.7,0.4-1l3.2-3.2c0.2-0.2,0.6-0.4,1-0.4
		h4.5c0.4,0,0.7,0.1,1,0.4l3.2,3.2c0.2,0.2,0.4,0.6,0.4,1v4.5c0,0.4-0.1,0.7-0.4,1l-3.2,3.2c-0.2,0.2-0.6,0.4-1,0.4h-4.5
		c-0.4,0-0.7-0.1-1-0.4l-3.2-3.2c-0.2-0.2-0.4-0.6-0.4-1V140.7z M233.5,121.8h58.2c1.3,0,2.4,1.1,2.4,2.4c0,1.3-1.1,2.4-2.4,2.4
		h-58.2c-1.3,0-2.4-1.1-2.4-2.4C231.1,122.9,232.2,121.8,233.5,121.8z M200.4,124.3c2.2-2.2,5.2-3.5,8.3-3.5c3.1,0,6.1,1.2,8.3,3.5
		c4.6,4.6,4.6,12.1,0,16.7c-2.2,2.2-5.2,3.5-8.3,3.5c-3.1,0-6.1-1.2-8.3-3.5c-2.2-2.2-3.5-5.2-3.5-8.3
		C196.9,129.5,198.1,126.5,200.4,124.3z M181.3,120.8c6.5,0,11.8,5.3,11.8,11.8c0,6.5-5.3,11.8-11.8,11.8c-6.5,0-11.8-5.3-11.8-11.8
		C169.5,126.1,174.8,120.8,181.3,120.8z M145.8,124.3c2.2-2.2,5.2-3.5,8.3-3.5c3.1,0,6.1,1.2,8.3,3.5c4.6,4.6,4.6,12.1,0,16.7
		c-2.2,2.2-5.2,3.5-8.3,3.5c-3.1,0-6.1-1.2-8.3-3.5c-2.2-2.2-3.5-5.2-3.5-8.3C142.4,129.5,143.6,126.5,145.8,124.3z M117,124.3
		c2.2-2.2,5.2-3.5,8.3-3.5c3.1,0,6.1,1.2,8.3,3.5c4.6,4.6,4.6,12.1,0,16.7c-2.2,2.2-5.2,3.5-8.3,3.5c-3.1,0-6.1-1.2-8.3-3.5
		c-2.2-2.2-3.5-5.2-3.5-8.3C113.5,129.5,114.8,126.5,117,124.3z"/>
	<polygon class="st0" points="179.1,230.1 179.1,255.9 283.9,255.9 283.9,230.1 179.1,230.1 	"/>
	<path class="st0" d="M108.1,327.6L108.1,327.6l246.9,0V167.5H108.1V327.6z M113.5,176.4c0-1.3,1.1-2.4,2.4-2.4h231.4
		c1.3,0,2.4,1.1,2.4,2.4v142.1c0,1.3-1.1,2.4-2.4,2.4H115.9c-1.3,0-2.4-1.1-2.4-2.4V176.4z"/>
	<path class="st0" d="M154.2,139.7c1.9,0,3.6-0.7,4.9-2c2.7-2.8,2.7-7.2,0-9.9c-1.3-1.3-3.1-2-4.9-2c-1.4,0-2.7,0.4-3.8,1.1l2.7,2.7
		c0.6,0.5,0.6,1.4,0,2c-0.3,0.3-0.6,0.4-1,0.4s-0.7-0.1-1-0.4l-2.7-2.7c-0.7,1.1-1.1,2.4-1.1,3.9c0,1.9,0.7,3.6,2,4.9
		C150.6,138.9,152.3,139.7,154.2,139.7z"/>
	<path class="st0" d="M184.8,101.3c-0.6-0.4-1.4-0.6-2.2-0.6h-18.2c-1.9,0-3.5,1.4-3.8,3.1h24.1V101.3z"/>
	<circle class="st0" cx="125.3" cy="132.6" r="3.1"/>
	<path class="st0" d="M344.9,178.8H118.3v137.3h226.6V178.8z M288.6,258.3c0,1.3-1.1,2.4-2.4,2.4H176.7c-1.3,0-2.4-1.1-2.4-2.4
		v-30.6c0-1.3,1.1-2.4,2.4-2.4h109.6c1.3,0,2.4,1.1,2.4,2.4V258.3z"/>
	<path d="M359.9,103.8h-52.5c-0.4-4.4-4.1-7.9-8.6-7.9h-18.2c-2.2,0-4.3,0.8-5.8,2.2c-3.8-0.1-8-1.4-12.8-3
		c-7.6-2.4-17-5.5-30.3-5.5c-14.7,0-23.9,3.1-31.3,5.6c-4.6,1.6-8.2,2.8-11.9,2.8c-1.6-1.4-3.6-2.3-5.8-2.3h-18.2
		c-4.5,0-8.3,3.5-8.6,7.9h-52.5c-2.6,0-4.8,2.2-4.8,4.8v223.8c0,2.6,2.2,4.8,4.8,4.8h3.7v1.9c0,1.8,1.5,3.4,3.4,3.4h17.7
		c0.6,0,1.1-0.1,1.6-0.4l8.7-4.8h185.6l8.7,4.8c0.5,0.3,1.1,0.4,1.6,0.4h17.7c1.8,0,3.4-1.5,3.4-3.4v-1.9h4.4c2.6,0,4.8-2.2,4.8-4.8
		V108.6C364.7,105.9,362.5,103.8,359.9,103.8z M278.4,101.2c0.6-0.4,1.3-0.6,2.1-0.6h18.2c1.9,0,3.5,1.4,3.8,3.1h-24.1V101.2z
		 M202.4,101.6c7-2.3,15.6-5.3,29.2-5.3c12.2,0,20.7,2.8,28.3,5.2c2.7,0.9,5.3,1.7,7.7,2.3h-72.2C197.7,103.2,200,102.5,202.4,101.6
		z M164.5,100.6h18.2c0.8,0,1.5,0.2,2.2,0.6v2.5h-24.1C161,102,162.6,100.6,164.5,100.6z M355.1,327.6H108.1v0V167.5h246.9V327.6z
		 M355.1,157.9H108.1v-44.6h246.9V157.9z"/>
	<path d="M115.9,320.9h231.4c1.3,0,2.4-1.1,2.4-2.4V176.4c0-1.3-1.1-2.4-2.4-2.4H115.9c-1.3,0-2.4,1.1-2.4,2.4v142.1
		C113.5,319.8,114.6,320.9,115.9,320.9z M118.3,178.8h226.6v137.3H118.3V178.8z"/>
	<path d="M326.6,152.4h22.6c1.3,0,2.4-1.1,2.4-2.4v-29.6c0-1.3-1.1-2.4-2.4-2.4h-22.6c-1.3,0-2.4,1.1-2.4,2.4V150
		C324.2,151.3,325.3,152.4,326.6,152.4z M329,122.8h17.8v11H329V122.8z M329,136.6h17.8v8.9H329V136.6z M329,146.5h17.8v1.1H329
		V146.5z"/>
	<path d="M286.2,225.3H176.7c-1.3,0-2.4,1.1-2.4,2.4v30.6c0,1.3,1.1,2.4,2.4,2.4h109.6c1.3,0,2.4-1.1,2.4-2.4v-30.6
		C288.6,226.4,287.6,225.3,286.2,225.3z M283.9,255.9H179.1v-25.8h0h104.8V255.9z"/>
	<path d="M307.7,132.5c0.2,0.2,0.6,0.4,1,0.4h4.5c0.4,0,0.7-0.1,1-0.4l3.2-3.2c0.2-0.2,0.4-0.6,0.4-1v-4.5c0-0.4-0.1-0.7-0.4-1
		l-3.2-3.2c-0.2-0.2-0.6-0.4-1-0.4h-4.5c-0.4,0-0.7,0.1-1,0.4l-3.2,3.2c-0.2,0.2-0.4,0.6-0.4,1v4.5c0,0.4,0.1,0.7,0.4,1L307.7,132.5
		z M306.8,124.4l2.4-2.4h3.4l2.4,2.4v3.4l-2.4,2.4h-3.4l-2.4-2.4V124.4z"/>
	<circle cx="310.9" cy="126.1" r="3"/>
	<path d="M307.7,149.4c0.2,0.2,0.6,0.4,1,0.4h4.5c0.4,0,0.7-0.1,1-0.4l3.2-3.2c0.2-0.2,0.4-0.6,0.4-1v-4.5c0-0.4-0.1-0.7-0.4-1
		l-3.2-3.2c-0.2-0.2-0.6-0.4-1-0.4h-4.5c-0.4,0-0.7,0.1-1,0.4l-3.2,3.2c-0.2,0.2-0.4,0.6-0.4,1v4.5c0,0.4,0.1,0.7,0.4,1L307.7,149.4
		z M306.8,141.3l2.4-2.4h3.4l2.4,2.4v3.4l-2.4,2.4h-3.4l-2.4-2.4V141.3z"/>
	<circle cx="310.9" cy="143" r="3"/>
	<path d="M154.2,144.4c3.1,0,6.1-1.2,8.3-3.5c4.6-4.6,4.6-12.1,0-16.7c-2.2-2.2-5.2-3.5-8.3-3.5c-3.1,0-6.1,1.2-8.3,3.5
		c-2.2,2.2-3.5,5.2-3.5,8.3c0,3.1,1.2,6.1,3.5,8.3C148.1,143.2,151,144.4,154.2,144.4z M148.3,128.8l2.7,2.7c0.3,0.3,0.6,0.4,1,0.4
		s0.7-0.1,1-0.4c0.6-0.6,0.6-1.5,0-2l-2.7-2.7c1.1-0.7,2.4-1.1,3.8-1.1c1.9,0,3.6,0.7,4.9,2c2.7,2.7,2.7,7.2,0,9.9
		c-1.3,1.3-3.1,2-4.9,2c-1.9,0-3.6-0.7-4.9-2c-1.3-1.3-2-3.1-2-4.9C147.2,131.2,147.6,129.9,148.3,128.8z"/>
	<path d="M125.3,144.4c3.1,0,6.1-1.2,8.3-3.5c4.6-4.6,4.6-12.1,0-16.7c-2.2-2.2-5.2-3.5-8.3-3.5c-3.1,0-6.1,1.2-8.3,3.5
		c-2.2,2.2-3.5,5.2-3.5,8.3c0,3.1,1.2,6.1,3.5,8.3C119.2,143.2,122.2,144.4,125.3,144.4z M120.4,127.7c1.3-1.3,3.1-2,4.9-2
		s3.6,0.7,4.9,2c2.7,2.7,2.7,7.2,0,9.9c-1.3,1.3-3.1,2-4.9,2s-3.6-0.7-4.9-2c-1.3-1.3-2-3.1-2-4.9C118.3,130.8,119,129,120.4,127.7z
		"/>
	<path d="M181.3,144.4c6.5,0,11.8-5.3,11.8-11.8c0-6.5-5.3-11.8-11.8-11.8c-6.5,0-11.8,5.3-11.8,11.8
		C169.5,139.1,174.8,144.4,181.3,144.4z M181.3,125.6c3.8,0,7,3.1,7,7c0,3.4-2.4,6.2-5.6,6.8v-3.8c0-0.8-0.6-1.4-1.4-1.4
		c-0.8,0-1.4,0.6-1.4,1.4v3.8c-3.2-0.7-5.6-3.5-5.6-6.8C174.3,128.7,177.4,125.6,181.3,125.6z"/>
	<path d="M208.7,144.4c3.1,0,6.1-1.2,8.3-3.5c4.6-4.6,4.6-12.1,0-16.7c-2.2-2.2-5.2-3.5-8.3-3.5c-3.1,0-6.1,1.2-8.3,3.5
		c-2.2,2.2-3.5,5.2-3.5,8.3c0,3.1,1.2,6.1,3.5,8.3C202.6,143.2,205.5,144.4,208.7,144.4z M203.7,127.7c1.3-1.3,3.1-2,4.9-2
		c1.9,0,3.6,0.7,4.9,2c2.7,2.7,2.7,7.2,0,9.9c-1.3,1.3-3.1,2-4.9,2c-1.4,0-2.7-0.4-3.8-1.1l2.7-2.7c0.6-0.6,0.6-1.5,0-2
		c-0.6-0.6-1.5-0.6-2,0l-2.7,2.7c-0.7-1.1-1.1-2.4-1.1-3.8C201.7,130.8,202.4,129,203.7,127.7z"/>
	<path d="M125.3,137.9c2.9,0,5.2-2.3,5.2-5.2c0-2.9-2.3-5.2-5.2-5.2c-2.9,0-5.2,2.3-5.2,5.2C120.1,135.5,122.4,137.9,125.3,137.9z
		 M125.3,129.5c1.7,0,3.1,1.4,3.1,3.1c0,1.7-1.4,3.1-3.1,3.1c-1.7,0-3.1-1.4-3.1-3.1C122.2,130.9,123.6,129.5,125.3,129.5z"/>
	<path d="M233.5,126.6h58.2c1.3,0,2.4-1.1,2.4-2.4c0-1.3-1.1-2.4-2.4-2.4h-58.2c-1.3,0-2.4,1.1-2.4,2.4
		C231.1,125.5,232.2,126.6,233.5,126.6z"/>
	<path d="M291.7,130.2h-23.9c-1.3,0-2.4,1.1-2.4,2.4c0,1.3,1.1,2.4,2.4,2.4h23.9c1.3,0,2.4-1.1,2.4-2.4
		C294.1,131.3,293.1,130.2,291.7,130.2z"/>
	<path d="M256.2,130.2H242c-1.3,0-2.4,1.1-2.4,2.4c0,1.3,1.1,2.4,2.4,2.4h14.2c1.3,0,2.4-1.1,2.4-2.4
		C258.5,131.3,257.5,130.2,256.2,130.2z"/>
	<path d="M212.5,147.6h-6.7c-1.3,0-2.4,1.1-2.4,2.4c0,1.3,1.1,2.4,2.4,2.4h6.7c1.3,0,2.4-1.1,2.4-2.4
		C214.9,148.7,213.9,147.6,212.5,147.6z"/>
	<path d="M184.6,147.6h-6.7c-1.3,0-2.4,1.1-2.4,2.4c0,1.3,1.1,2.4,2.4,2.4h6.7c1.3,0,2.4-1.1,2.4-2.4
		C187,148.7,186,147.6,184.6,147.6z"/>
	<path d="M157.5,147.6h-6.7c-1.3,0-2.4,1.1-2.4,2.4c0,1.3,1.1,2.4,2.4,2.4h6.7c1.3,0,2.4-1.1,2.4-2.4
		C159.9,148.7,158.9,147.6,157.5,147.6z"/>
	<path d="M122.9,147.6h-3.8c-1.3,0-2.4,1.1-2.4,2.4c0,1.3,1.1,2.4,2.4,2.4h3.8c1.3,0,2.4-1.1,2.4-2.4
		C125.3,148.7,124.2,147.6,122.9,147.6z"/>
	<path d="M132.4,147.6h-3.8c-1.3,0-2.4,1.1-2.4,2.4c0,1.3,1.1,2.4,2.4,2.4h3.8c1.3,0,2.4-1.1,2.4-2.4
		C134.8,148.7,133.7,147.6,132.4,147.6z"/>
</g>
</svg>
